<svg width="24" height="25" viewBox="0 0 24 25" fill="none" xmlns="http://www.w3.org/2000/svg">
<path d="M10 7.5L9.48415 8.89405C8.80774 10.722 8.46953 11.636 7.80278 12.3028C7.13603 12.9695 6.22204 13.3077 4.39405 13.9842L3 14.5L4.39405 15.0158C6.22204 15.6923 7.13603 16.0305 7.80278 16.6972C8.46953 17.364 8.80774 18.278 9.48415 20.1059L10 21.5L10.5158 20.1059C11.1923 18.278 11.5305 17.364 12.1972 16.6972C12.864 16.0305 13.778 15.6923 15.6059 15.0158L17 14.5L15.6059 13.9842C13.778 13.3077 12.864 12.9695 12.1972 12.3028C11.5305 11.636 11.1923 10.722 10.5158 8.89405L10 7.5Z" stroke="white" stroke-linejoin="round"/>
<path d="M18 3.5L17.7789 4.09745C17.489 4.88087 17.3441 5.27259 17.0583 5.55833C16.7726 5.84408 16.3809 5.98903 15.5975 6.27892L15 6.5L15.5975 6.72108C16.3809 7.01097 16.7726 7.15592 17.0583 7.44167C17.3441 7.72741 17.489 8.11913 17.7789 8.90255L18 9.5L18.2211 8.90255C18.511 8.11913 18.6559 7.72741 18.9417 7.44166C19.2274 7.15592 19.6191 7.01097 20.4025 6.72108L21 6.5L20.4025 6.27892C19.6191 5.98903 19.2274 5.84408 18.9417 5.55833C18.6559 5.27259 18.511 4.88087 18.2211 4.09745L18 3.5Z" stroke="white" stroke-linejoin="round"/>
</svg>
