<svg width="40" height="40" viewBox="0 0 40 40" fill="none" xmlns="http://www.w3.org/2000/svg">
<path d="M25 35H35C35.663 35 36.2989 34.7366 36.7678 34.2678C37.2366 33.7989 37.5 33.163 37.5 32.5V22.5C37.5 21.837 37.2366 21.2011 36.7678 20.7322C36.2989 20.2634 35.663 20 35 20H27.5C27.5 14.485 31.985 10 37.5 10V5C29.2275 5 22.5 11.7275 22.5 20V32.5C22.5 33.163 22.7634 33.7989 23.2322 34.2678C23.7011 34.7366 24.337 35 25 35ZM5 35H15C15.663 35 16.2989 34.7366 16.7678 34.2678C17.2366 33.7989 17.5 33.163 17.5 32.5V22.5C17.5 21.837 17.2366 21.2011 16.7678 20.7322C16.2989 20.2634 15.663 20 15 20H7.5C7.5 14.485 11.985 10 17.5 10V5C9.2275 5 2.5 11.7275 2.5 20V32.5C2.5 33.163 2.76339 33.7989 3.23223 34.2678C3.70107 34.7366 4.33696 35 5 35Z" fill="#2A5ADA"/>
</svg>
