<svg width="18" height="18" viewBox="0 0 18 18" fill="none" xmlns="http://www.w3.org/2000/svg">
<path d="M8.29661 0.90088C8.53823 0.247916 9.46177 0.247916 9.70339 0.900879L11.5812 5.97566C11.6572 6.18095 11.819 6.34281 12.0243 6.41877L17.0991 8.29661C17.7521 8.53823 17.7521 9.46177 17.0991 9.70339L12.0243 11.5812C11.819 11.6572 11.6572 11.819 11.5812 12.0243L9.70339 17.0991C9.46177 17.7521 8.53823 17.7521 8.29661 17.0991L6.41877 12.0243C6.34281 11.819 6.18095 11.6572 5.97566 11.5812L0.90088 9.70339C0.247916 9.46177 0.247916 8.53823 0.900879 8.29661L5.97566 6.41877C6.18095 6.34281 6.34281 6.18095 6.41877 5.97566L8.29661 0.90088Z" fill="white"/>
</svg>
