<svg width="44" height="44" viewBox="0 0 44 44" fill="none" xmlns="http://www.w3.org/2000/svg">
<path d="M34.196 22.3333C33.3981 23.2718 31.9233 23.2787 30.9929 22.3481L21.6521 13.0073C20.7214 12.0767 20.7283 10.602 21.6669 9.80403L24.2314 7.62368C26.075 6.05628 28.3229 5.01712 30.7594 4.60599L32.2698 4.35116C33.696 4.11049 35.1958 4.60872 36.2658 5.67864L38.3214 7.73443C39.3914 8.80435 39.8896 10.3041 39.6489 11.7304L39.3941 13.2408C38.9831 15.6772 37.9439 17.9252 36.3764 19.7687L34.196 22.3333Z" stroke="white" stroke-width="2.5"/>
<path d="M37.625 6.37504L41.7917 2.20837" stroke="white" stroke-width="2.5" stroke-linecap="round" stroke-linejoin="round"/>
<path d="M2.2085 41.7917L6.37516 37.625" stroke="white" stroke-width="2.5" stroke-linecap="round" stroke-linejoin="round"/>
<path d="M9.80391 21.6666C10.6019 20.7281 12.0766 20.7212 13.0071 21.6518L22.348 30.9926C23.2786 31.9231 23.2717 33.3979 22.3332 34.1958L19.7686 36.3762C17.925 37.9437 15.6771 38.9829 13.2406 39.3939L11.7303 39.6487C10.304 39.8893 8.80423 39.3912 7.73431 38.3212L5.67852 36.2656C4.6086 35.1956 4.11037 33.6958 4.35104 32.2695L4.60587 30.7591C5.017 28.3226 6.05616 26.0747 7.62356 24.2312L9.80391 21.6666Z" stroke="white" stroke-width="2.5"/>
<path d="M14.7085 23.0417L18.8752 18.875M20.9585 29.2917L25.1252 25.125" stroke="white" stroke-width="2.5" stroke-linecap="round" stroke-linejoin="round"/>
</svg>
