<svg width="46" height="36" viewBox="0 0 46 36" fill="none" xmlns="http://www.w3.org/2000/svg">
<path d="M29.5517 3.84925C28.2146 2.30806 26.2419 1.33337 24.0415 1.33337C20.9234 1.33337 18.2622 3.29069 17.2199 6.04373C16.4403 5.69435 15.5761 5.50004 14.6665 5.50004C11.2147 5.50004 8.4165 8.29827 8.4165 11.75C8.4165 11.7849 8.4168 11.8197 8.41736 11.8544M29.5517 3.84925C30.4425 3.56825 31.3911 3.41671 32.3748 3.41671C37.5525 3.41671 41.7498 7.61404 41.7498 12.7917C41.7498 14.1034 41.4805 15.3521 40.994 16.4855M29.5517 3.84925C26.7459 4.73419 24.51 6.90306 23.5334 9.66671C23.2988 10.3301 23.1369 11.0277 23.0571 11.75M8.41736 11.8544C8.08053 11.786 7.73188 11.75 7.37484 11.75C4.49836 11.75 2.1665 14.0819 2.1665 16.9584C2.1665 19.8348 4.49836 22.1667 7.37484 22.1667H16.854M8.41736 11.8544C8.4429 13.4142 9.03984 14.835 10.0079 15.9167M40.994 16.4855C40.2834 16.1219 39.478 15.9167 38.6248 15.9167C36.105 15.9167 34.0032 17.7061 33.5207 20.0834M40.994 16.4855C42.6794 17.348 43.8332 19.1017 43.8332 21.125C43.8332 24.0015 41.5013 26.3334 38.6248 26.3334C36.1048 26.3334 34.3605 28.8505 35.2453 31.21L36.5415 34.6667M16.854 22.1667C17.3366 24.544 19.4384 26.3334 21.9582 26.3334C22.489 26.3334 22.7546 26.3334 22.9994 26.3625C24.2196 26.5073 25.3138 27.1836 25.989 28.2102C26.1246 28.4161 26.2434 28.6536 26.4807 29.1284L29.2498 34.6667M16.854 22.1667C16.7857 21.83 16.7498 21.4817 16.7498 21.125C16.7498 19.4213 17.5679 17.9086 18.8327 16.9584" stroke="white" stroke-width="2.5" stroke-linecap="round" stroke-linejoin="round"/>
</svg>
