<svg width="37" height="37" viewBox="0 0 37 37" fill="none" xmlns="http://www.w3.org/2000/svg">
<path d="M14.5862 10.5198L17.6812 7.42488C21.166 3.94005 25.7283 2.49457 30.5566 2.25836C32.4347 2.16649 33.3737 2.12055 34.1266 2.87355C34.8797 3.62653 34.8337 4.56553 34.7418 6.44357C34.5056 11.2719 33.0602 15.8343 29.5754 19.319L26.4804 22.414C23.9316 24.9628 23.207 25.6875 23.742 28.4521C24.2702 30.564 24.7812 32.609 23.2456 34.1446C21.3829 36.0073 19.6837 36.0073 17.821 34.1446L2.85554 19.1792C0.992848 17.3165 0.992785 15.6173 2.85554 13.7546C4.39114 12.219 6.43618 12.7301 8.54801 13.2582C11.3127 13.7932 12.0375 13.0686 14.5862 10.5198Z" stroke="white" stroke-width="2.5" stroke-linejoin="round"/>
</svg>
