<svg width="40" height="46" viewBox="0 0 40 46" fill="none" xmlns="http://www.w3.org/2000/svg">
<path d="M38.75 21.2985V15.2506C38.75 11.8339 38.75 10.1255 37.9081 9.01098C37.0662 7.8964 35.1627 7.35529 31.3556 6.27308C28.7546 5.53371 26.4617 4.64294 24.6298 3.82973C22.1321 2.721 20.8833 2.16663 20 2.16663C19.1167 2.16663 17.8679 2.721 15.3702 3.82973C13.5383 4.64294 11.2455 5.53369 8.64444 6.27308C4.83735 7.35529 2.93379 7.8964 2.0919 9.01098C1.25 10.1255 1.25 11.8339 1.25 15.2506V21.2985C1.25 33.0177 11.7974 40.0489 17.0708 42.832C18.3356 43.4995 18.9679 43.8333 20 43.8333C21.0321 43.8333 21.6644 43.4995 22.9292 42.832C28.2025 40.0489 38.75 33.0177 38.75 21.2985Z" stroke="white" stroke-width="2.5" stroke-linecap="round"/>
<path d="M25.2082 21.9583C25.2082 24.8348 22.8763 27.1667 19.9998 27.1667C17.1234 27.1667 14.7915 24.8348 14.7915 21.9583C14.7915 19.0819 17.1234 16.75 19.9998 16.75C22.8763 16.75 25.2082 19.0819 25.2082 21.9583Z" stroke="white" stroke-width="2.5" stroke-linecap="round" stroke-linejoin="round"/>
</svg>
