<svg width="40" height="40" viewBox="0 0 40 40" fill="none" xmlns="http://www.w3.org/2000/svg">
<path d="M16.875 13.2292V9.0625C16.875 5.63804 16.875 3.92581 15.9292 2.77335C15.7561 2.5624 15.5626 2.36894 15.3516 2.19579C14.1992 1.25 12.487 1.25 9.0625 1.25C5.63804 1.25 3.92581 1.25 2.77335 2.19579C2.5624 2.36894 2.36894 2.5624 2.19579 2.77335C1.25 3.92581 1.25 5.63804 1.25 9.0625V13.2292C1.25 16.6535 1.25 18.3658 2.19579 19.5183C2.36894 19.7294 2.5624 19.9227 2.77335 20.0958C3.92581 21.0417 5.63804 21.0417 9.0625 21.0417C12.487 21.0417 14.1992 21.0417 15.3516 20.0958C15.5626 19.9227 15.7561 19.7294 15.9292 19.5183C16.875 18.3658 16.875 16.6535 16.875 13.2292Z" stroke="white" stroke-width="2.5" stroke-linejoin="round"/>
<path d="M11.1458 27.2916H6.97917C5.52546 27.2916 4.7986 27.2916 4.20715 27.471C2.87548 27.875 1.83337 28.917 1.42942 30.2487C1.25 30.8402 1.25 31.567 1.25 33.0208C1.25 34.4745 1.25 35.2014 1.42942 35.7929C1.83337 37.1245 2.87548 38.1666 4.20715 38.5706C4.7986 38.75 5.52546 38.75 6.97917 38.75H11.1458C12.5995 38.75 13.3264 38.75 13.9179 38.5706C15.2495 38.1666 16.2917 37.1245 16.6956 35.7929C16.875 35.2014 16.875 34.4745 16.875 33.0208C16.875 31.567 16.875 30.8402 16.6956 30.2487C16.2917 28.917 15.2495 27.875 13.9179 27.471C13.3264 27.2916 12.5995 27.2916 11.1458 27.2916Z" stroke="white" stroke-width="2.5" stroke-linejoin="round"/>
<path d="M38.75 30.9375V26.7709C38.75 23.3465 38.75 21.6342 37.8042 20.4817C37.631 20.2707 37.4377 20.0773 37.2267 19.9042C36.0742 18.9584 34.3619 18.9584 30.9375 18.9584C27.5131 18.9584 25.8008 18.9584 24.6483 19.9042C24.4373 20.0773 24.244 20.2707 24.0708 20.4817C23.125 21.6342 23.125 23.3465 23.125 26.7709V30.9375C23.125 34.3619 23.125 36.0742 24.0708 37.2267C24.244 37.4377 24.4373 37.6311 24.6483 37.8042C25.8008 38.75 27.5131 38.75 30.9375 38.75C34.3619 38.75 36.0742 38.75 37.2267 37.8042C37.4377 37.6311 37.631 37.4377 37.8042 37.2267C38.75 36.0742 38.75 34.3619 38.75 30.9375Z" stroke="white" stroke-width="2.5" stroke-linejoin="round"/>
<path d="M33.0208 1.25H28.8542C27.4004 1.25 26.6735 1.25 26.0821 1.42942C24.7504 1.83337 23.7083 2.87548 23.3044 4.20715C23.125 4.7986 23.125 5.52546 23.125 6.97917C23.125 8.43287 23.125 9.15973 23.3044 9.75119C23.7083 11.0829 24.7504 12.125 26.0821 12.5289C26.6735 12.7083 27.4004 12.7083 28.8542 12.7083H33.0208C34.4746 12.7083 35.2015 12.7083 35.7929 12.5289C37.1246 12.125 38.1667 11.0829 38.5706 9.75119C38.75 9.15973 38.75 8.43287 38.75 6.97917C38.75 5.52546 38.75 4.7986 38.5706 4.20715C38.1667 2.87548 37.1246 1.83337 35.7929 1.42942C35.2015 1.25 34.4746 1.25 33.0208 1.25Z" stroke="white" stroke-width="2.5" stroke-linejoin="round"/>
</svg>
